# Blender v2.77 (sub 0) OBJ File: 'Espada002.blend'
# www.blender.org
mtllib Espada002.mtl
o Plane
v -8.203507 0.216143 8.275219
v 8.011554 0.216143 8.275219
v -8.203507 0.216143 -7.939843
v 8.011554 0.216143 -7.939843
vn 0.000000 1.000000 0.000000
usemtl None
s off
f 1//1 2//1 4//1 3//1
o Cube
v 5.146360 0.493929 -0.429999
v 5.148663 0.419295 -0.220792
v -2.244268 1.193682 0.175427
v -2.247994 1.281458 -0.091474
v 5.157524 0.497065 -0.208168
v 5.160664 0.417979 0.027878
v -2.230888 1.190633 0.456080
v -2.234614 1.278408 0.189179
v 5.337253 0.465140 -0.386635
v 5.367503 0.406974 -0.202068
v 5.372932 0.454623 -0.194333
v 5.393609 0.400380 -0.027219
v 5.613538 0.405001 -0.210081
v -1.576627 1.404152 -0.675942
v -1.591321 1.275192 -0.696874
v -1.539063 1.137334 0.941523
v -1.553756 1.008374 0.920591
v -1.874031 1.476613 -0.913608
v -1.888724 1.347653 -0.934540
v -1.769334 1.111361 1.263207
v -1.784028 0.982392 1.242273
v -1.921270 1.376174 -0.309655
v -1.841075 1.386673 -0.457635
v -1.721873 1.395365 -0.569916
v -1.671970 1.405018 -0.614355
v -1.959689 1.362924 -0.200453
v -1.895155 1.336815 0.001893
v -1.726511 1.323958 0.136588
v -1.841817 1.291574 0.294664
v -1.934459 1.263751 0.412852
v -1.924102 1.223464 0.587879
v -1.855007 1.199000 0.696572
v -1.716208 1.171886 0.816809
v -1.646580 1.164315 0.850767
v -1.590659 1.150709 0.895342
v -1.975779 1.349745 -0.886321
v -2.049779 1.346659 -0.765299
v -2.173742 1.334807 -0.580324
v -2.299520 1.308194 -0.355086
v -2.339945 1.287700 -0.201051
v -2.365709 1.243728 0.001153
v -2.377956 1.195086 0.135563
v -2.365936 1.187890 0.293840
v -2.335545 1.184407 0.412221
v -2.256616 1.157685 0.587356
v -2.176657 1.114415 0.791337
v -2.090063 1.075521 0.919552
v -2.015221 1.039690 1.051575
v -1.917739 1.012355 1.151558
v -1.605352 1.021749 0.874410
v -1.661274 1.035355 0.829835
v -1.729613 1.054229 0.797711
v -1.866611 1.097155 0.680041
v -1.935475 1.123640 0.571676
v -1.948178 1.143342 0.393308
v -1.859745 1.134229 0.269125
v -1.748794 1.128389 0.104844
v -1.911250 1.195551 -0.021036
v -1.972695 1.248768 -0.218982
v -1.934255 1.262206 -0.328153
v -1.853099 1.281140 -0.474765
v -1.734784 1.282042 -0.588310
v -1.686663 1.276058 -0.635287
v -1.903046 1.141315 1.172490
v -2.000528 1.168651 1.072507
v -2.076658 1.193178 0.938650
v -2.165054 1.216260 0.807868
v -2.245242 1.257508 0.603559
v -2.321826 1.304816 0.431766
v -2.348008 1.345235 0.319379
v -2.355674 1.390656 0.167307
v -2.349614 1.384992 0.024082
v -2.326938 1.401856 -0.182522
v -2.286535 1.422162 -0.336587
v -2.161718 1.440339 -0.563195
v -2.036867 1.459982 -0.746905
v -1.961086 1.478705 -0.865389
v -3.518962 1.361914 0.082537
v -3.531209 1.313272 0.216947
v -3.519188 1.306076 0.375224
v -3.501261 1.463421 0.400763
v -3.508926 1.508842 0.248691
v -3.502867 1.503178 0.105466
v -4.142112 1.425255 0.129716
v -4.165113 1.379436 0.254281
v -4.132393 1.370888 0.406361
v -4.114466 1.528233 0.431900
v -4.142831 1.575006 0.286024
v -4.126017 1.566519 0.152645
v -3.846017 1.566812 -0.045702
v -3.825878 1.541924 0.267358
v -3.751927 1.299090 0.581634
v -3.848161 1.346354 0.235614
v -3.862113 1.425548 -0.068631
v -3.734000 1.456435 0.607173
v -3.981989 1.576004 -0.006888
v -4.059623 1.573961 0.060190
v -3.905324 1.319387 0.564261
v -4.049583 1.345449 0.504960
v -3.998084 1.434739 -0.029817
v -4.075718 1.432697 0.037261
v -3.887397 1.476732 0.589800
v -4.031656 1.502794 0.530499
v -4.037179 1.563978 0.279802
v -3.931530 1.552951 0.273580
v -4.059462 1.368409 0.248058
v -3.953812 1.357382 0.241836
v -3.720228 1.530896 0.261135
v -3.614577 1.519869 0.254913
v -3.742510 1.335327 0.229392
v -3.636859 1.324300 0.223170
v -3.580138 1.526347 0.016968
v -3.698484 1.550503 -0.048784
v -3.559992 1.298446 0.450874
v -3.652786 1.295486 0.534248
v -3.596233 1.385082 -0.005961
v -3.714579 1.409239 -0.071713
v -3.542065 1.455791 0.476413
v -3.634859 1.452831 0.559787
vt 0.951378 0.500764
vt 0.201147 0.497107
vt 0.201147 0.469123
vt 0.951378 0.475993
vt 0.975154 0.480455
vt 0.973325 0.498021
vt 0.951378 0.522793
vt 0.201147 0.525090
vt 0.970582 0.517416
vt 0.998015 0.498021
vt 0.257989 0.427652
vt 0.251105 0.431367
vt 0.214200 0.420729
vt 0.221427 0.406785
vt 0.263514 0.422824
vt 0.230987 0.396096
vt 0.268595 0.417854
vt 0.244247 0.386172
vt 0.237510 0.444194
vt 0.205746 0.434381
vt 0.260054 0.577302
vt 0.269909 0.583112
vt 0.240530 0.608849
vt 0.231557 0.604362
vt 0.230865 0.455614
vt 0.198279 0.455614
vt 0.230256 0.473704
vt 0.190950 0.473704
vt 0.239813 0.485621
vt 0.188450 0.485621
vt 0.251784 0.501506
vt 0.187943 0.501506
vt 0.235424 0.515628
vt 0.189310 0.515628
vt 0.229676 0.536368
vt 0.192411 0.536368
vt 0.233915 0.547319
vt 0.196993 0.551888
vt 0.242555 0.561950
vt 0.210403 0.574320
vt 0.254944 0.572881
vt 0.223591 0.592514
vt 0.070844 0.498947
vt 0.071350 0.483062
vt 0.017225 0.498404
vt 0.015946 0.520464
vt 0.008927 0.511359
vt 0.006501 0.498296
vt 0.072211 0.513069
vt 0.017202 0.472464
vt 0.009124 0.482940
vt 0.057311 0.467498
vt 0.049396 0.498730
vt 0.038673 0.498622
vt 0.047117 0.463156
vt 0.052880 0.529786
vt 0.037923 0.530206
vt 0.027949 0.498513
vt 0.031630 0.465694
vt 0.024024 0.526923
vt 0.064662 0.522485
vt 0.060120 0.498839
vt 0.066976 0.475545
vt 0.000000 0.000000
vt 0.000000 0.000000
vt 0.000000 0.000000
vt 0.000000 0.000000
vt 0.000000 0.000000
vt 0.000000 0.000000
vt 0.000000 0.000000
vt 0.000000 0.000000
vt 0.000000 0.000000
vt 0.000000 0.000000
vt 0.000000 0.000000
vt 0.000000 0.000000
vt 0.000000 0.000000
vt 0.000000 0.000000
vt 0.000000 0.000000
vt 0.000000 0.000000
vt 0.000000 0.000000
vt 0.000000 0.000000
vt 0.000000 0.000000
vt 0.000000 0.000000
vt 0.000000 0.000000
vt 0.000000 0.000000
vt 0.000000 0.000000
vt 0.000000 0.000000
vt 0.000000 0.000000
vt 0.000000 0.000000
vt 0.000000 0.000000
vt 0.000000 0.000000
vt 0.000000 0.000000
vt 0.000000 0.000000
vt 0.000000 0.000000
vt 0.000000 0.000000
vt 0.000000 0.000000
vt 0.000000 0.000000
vt 0.000000 0.000000
vt 0.000000 0.000000
vt 0.000000 0.000000
vt 0.000000 0.000000
vt 0.000000 0.000000
vt 0.000000 0.000000
vt 0.000000 0.000000
vt 0.000000 0.000000
vt 0.000000 0.000000
vt 0.000000 0.000000
vt 0.000000 0.000000
vt 0.000000 0.000000
vt 0.000000 0.000000
vt 0.000000 0.000000
vt 0.000000 0.000000
vt 0.000000 0.000000
vt 0.000000 0.000000
vt 0.000000 0.000000
vt 0.000000 0.000000
vt 0.000000 0.000000
vt 0.000000 0.000000
vt 0.000000 0.000000
vt 0.000000 0.000000
vt 0.000000 0.000000
vt 0.000000 0.000000
vt 0.000000 0.000000
vt 0.000000 0.000000
vt 0.000000 0.000000
vt 0.000000 0.000000
vt 0.000000 0.000000
vt 0.000000 0.000000
vt 0.000000 0.000000
vt 0.000000 0.000000
vt 0.000000 0.000000
vt 0.000000 0.000000
vt 0.000000 0.000000
vt 0.000000 0.000000
vt 0.000000 0.000000
vt 0.000000 0.000000
vt 0.000000 0.000000
vt 0.000000 0.000000
vt 0.000000 0.000000
vt 0.000000 0.000000
vt 0.000000 0.000000
vt 0.000000 0.000000
vt 0.000000 0.000000
vt 0.000000 0.000000
vt 0.000000 0.000000
vt 0.000000 0.000000
vt 0.000000 0.000000
vt 0.000000 0.000000
vt 0.000000 0.000000
vt 0.000000 0.000000
vt 0.000000 0.000000
vt 0.000000 0.000000
vt 0.000000 0.000000
vt 0.000000 0.000000
vt 0.000000 0.000000
vt 0.000000 0.000000
vt 0.000000 0.000000
vt 0.000000 0.000000
vt 0.000000 0.000000
vt 0.000000 0.000000
vt 0.000000 0.000000
vt 0.000000 0.000000
vt 0.000000 0.000000
vt 0.000000 0.000000
vt 0.000000 0.000000
vt 0.000000 0.000000
vt 0.000000 0.000000
vt 0.000000 0.000000
vt 0.000000 0.000000
vt 0.000000 0.000000
vt 0.000000 0.000000
vt 0.000000 0.000000
vt 0.000000 0.000000
vn 0.116500 0.943100 0.311300
vn 0.153800 0.940800 0.302000
vn 0.105200 0.994400 -0.005300
vn 0.173000 0.984900 -0.002000
vn 0.211400 0.937000 0.278000
vn 0.203000 0.979100 0.015900
vn 0.089300 0.989700 0.111800
vn 0.111800 0.980900 0.159200
vn 0.111700 0.980900 0.159200
vn 0.095600 0.989200 0.111300
vn 0.110700 0.982000 0.153400
vn 0.113400 0.969700 0.216500
vn 0.115200 0.943000 0.312300
vn 0.114700 0.953400 0.279000
vn 0.103700 0.994000 -0.034900
vn 0.109400 0.989700 0.092800
vn 0.111800 0.981000 0.158500
vn 0.116100 0.983500 0.138800
vn 0.102800 0.978600 0.178400
vn 0.066400 0.973100 0.220700
vn 0.117400 0.953200 0.278800
vn 0.023100 0.999700 0.003900
vn 0.099400 0.994400 -0.035100
vn 0.060500 0.964400 0.257400
vn 0.125100 0.968900 0.213500
vn 0.109700 0.991400 0.071100
vn 0.108000 0.970200 0.216800
vn 0.095700 0.969300 0.226500
vn 0.095900 0.993000 0.068800
vn 0.071000 0.995900 0.055400
vn 0.174700 0.984400 0.020700
vn 0.139000 0.988400 0.061300
vn 0.159700 0.956000 0.246000
vn 0.139200 0.965200 0.221500
vn -0.115200 -0.940600 -0.319400
vn -0.104200 -0.994500 -0.003200
vn -0.993300 0.105300 0.048500
vn -0.009200 -0.999300 -0.036300
vn -0.067100 -0.997700 -0.012600
vn -0.047200 -0.947700 -0.315700
vn -0.111800 -0.980900 -0.159200
vn -0.017400 -0.954400 -0.297900
vn -0.471800 0.193400 -0.860200
vn 0.672500 0.043300 -0.738800
vn 0.631300 0.053600 -0.773700
vn 0.806300 -0.183200 0.562400
vn 0.531000 -0.194400 0.824800
vn 0.673100 -0.192600 0.714000
vn 0.680300 -0.192300 0.707300
vn 0.870900 -0.173800 0.459600
vn 0.937400 -0.157200 0.310700
vn 0.948900 -0.057800 -0.310100
vn 0.625700 0.055000 -0.778100
vn 0.811800 -0.182500 0.554700
vn 0.794100 -0.184500 0.579100
vn 0.991700 -0.099700 -0.081600
vn 0.843000 -0.008700 -0.537800
vn 0.659200 0.046700 -0.750500
vn 0.444700 0.093900 -0.890800
vn 0.630400 0.053900 -0.774400
vn -0.570500 -0.067900 0.818500
vn -0.719800 -0.030500 0.693500
vn -0.867700 0.018200 0.496800
vn -0.828200 0.003400 0.560400
vn -0.926800 0.045100 0.372900
vn -0.909000 0.036200 0.415200
vn -0.965800 0.069500 0.250000
vn -0.119800 -0.930000 -0.347500
vn -0.986900 0.128300 -0.097800
vn -0.961300 0.147300 -0.232700
vn -0.868400 0.174300 -0.464300
vn -0.822300 0.181200 -0.539400
vn -0.841400 0.178600 -0.510000
vn -0.133900 -0.969300 -0.206200
vn -0.127600 -0.970000 -0.206700
vn -0.112800 -0.979800 -0.165100
vn -0.109800 -0.988800 -0.101400
vn -0.105500 -0.994400 -0.002200
vn -0.107100 -0.993600 -0.037000
vn -0.115600 -0.930600 -0.347300
vn -0.113600 -0.967700 -0.224900
vn -0.111700 -0.980800 -0.159900
vn -0.107400 -0.977900 -0.179500
vn -0.120700 -0.982800 -0.139900
vn -0.156500 -0.982900 -0.096800
vn -0.161700 -0.985100 -0.059100
vn -0.104500 -0.993800 -0.037300
vn -0.052500 0.165800 -0.984800
vn 0.052500 -0.165800 0.984800
vn -0.973900 0.076300 0.213800
vn -0.982200 0.133400 -0.132300
vn -0.805400 0.183300 -0.563600
vn -0.767700 -0.016500 0.640500
vn -0.196800 -0.930300 -0.309400
vn -0.113000 -0.962600 -0.246100
vn 0.417600 -0.191700 0.888200
vn -0.002900 0.160500 -0.987000
vn -0.098000 -0.989700 -0.104400
vn -0.126600 -0.960400 -0.248300
vn -0.151100 -0.953400 -0.261000
vn -0.130200 -0.144400 0.980900
vn -0.394100 -0.103300 0.913200
vn -0.258400 0.183400 -0.948500
vn -0.644300 0.193500 -0.739900
vn -0.115100 -0.988200 -0.101100
vn -0.127200 -0.987700 -0.091100
vn -0.062700 -0.995500 -0.070800
vn -0.083700 -0.991800 -0.096200
vn 0.755700 0.020100 -0.654600
vn 0.496900 0.083600 -0.863700
vn 0.874000 -0.173300 0.453900
vn 0.659200 -0.193100 0.726800
vn -0.046200 -0.954700 -0.294100
vn -0.083400 -0.963200 -0.255500
usemtl Material
s off
f 9/1/2 12/2/2 11/3/2 10/4/2
f 9/1/3 10/4/3 16/5/3 15/6/3
f 9/1/4 5/7/4 8/8/4 12/2/4
f 5/7/5 9/1/5 15/6/5 13/9/5
f 15/6/6 16/5/6 17/10/6
f 13/9/7 15/6/7 17/10/7
f 38/11/8 37/12/8 70/13/8 69/14/8
f 39/15/9 38/11/9 69/14/9 68/16/9
f 20/17/10 39/15/10 68/16/10 24/18/10
f 37/12/11 36/19/11 71/20/11 70/13/11
f 29/21/9 18/22/9 22/23/9 81/24/9
f 36/19/12 35/25/12 72/26/12 71/20/12
f 35/25/13 34/27/13 73/28/13 72/26/13
f 34/27/14 33/29/14 74/30/14 73/28/14
f 33/29/15 32/31/15 75/32/15 74/30/15
f 32/31/16 31/33/16 76/34/16 75/32/16
f 31/33/17 30/35/17 77/36/17 76/34/17
f 30/35/18 26/37/18 78/38/18 77/36/18
f 26/37/19 27/39/19 79/40/19 78/38/19
f 27/39/20 28/41/20 80/42/20 79/40/20
f 28/41/21 29/21/21 81/24/21 80/42/21
f 74/30/22 75/32/22 86/43/22 85/44/22
f 108/45/23 101/46/23 93/47/23 92/48/23
f 75/32/24 76/34/24 87/49/24 86/43/24
f 107/50/25 108/45/25 92/48/25 91/51/25
f 123/52/26 112/53/26 95/54/26 99/55/26
f 112/53/27 117/56/27 94/57/27 95/54/27
f 99/55/28 95/54/28 109/58/28 106/59/28
f 106/59/29 109/58/29 108/45/29 107/50/29
f 95/54/30 94/57/30 100/60/30 109/58/30
f 109/58/31 100/60/31 101/46/31 108/45/31
f 86/43/32 87/49/32 116/61/32 113/62/32
f 113/62/33 116/61/33 117/56/33 112/53/33
f 85/44/34 86/43/34 113/62/34 122/63/34
f 122/63/35 113/62/35 112/53/35 123/52/35
usemtl Material_NONE
f 5/64/36 6/65/36 7/66/36 8/67/36
f 6/65/37 10/68/37 11/69/37 7/66/37
f 7/66/38 11/69/38 12/70/38 8/67/38
f 16/71/39 14/72/39 17/73/39
f 10/68/40 6/65/40 14/72/40 16/71/40
f 6/65/41 5/64/41 13/74/41 14/72/41
f 40/75/42 23/76/42 19/77/42 67/78/42
f 14/72/43 13/74/43 17/73/43
f 81/79/44 22/80/44 23/76/44 40/75/44
f 39/81/45 20/82/45 21/83/45 54/84/45
f 22/80/46 18/85/46 19/77/46 23/76/46
f 20/82/47 24/86/47 25/87/47 21/83/47
f 18/85/48 29/88/48 67/78/48 19/77/48
f 29/88/49 28/89/49 66/90/49 67/78/49
f 28/89/50 27/91/50 65/92/50 66/90/50
f 27/91/51 26/93/51 64/94/51 65/92/51
f 26/93/52 30/95/52 63/96/52 64/94/52
f 30/95/53 31/97/53 62/98/53 63/96/53
f 31/97/54 32/99/54 61/100/54 62/98/54
f 32/99/55 33/101/55 60/102/55 61/100/55
f 33/101/56 34/103/56 59/104/56 60/102/56
f 34/103/57 35/105/57 58/106/57 59/104/57
f 35/105/58 36/107/58 57/108/58 58/106/58
f 36/107/59 37/109/59 56/110/59 57/108/59
f 37/109/60 38/111/60 55/112/60 56/110/60
f 38/111/61 39/81/61 54/84/61 55/112/61
f 24/86/62 68/113/62 53/114/62 25/87/62
f 68/113/63 69/115/63 52/116/63 53/114/63
f 69/115/64 70/117/64 51/118/64 52/116/64
f 70/117/65 71/119/65 50/120/65 51/118/65
f 71/119/66 72/121/66 49/122/66 50/120/66
f 72/121/67 73/123/67 48/124/67 49/122/67
f 73/123/68 74/125/68 47/126/68 48/124/68
f 45/127/69 46/128/69 83/129/69 82/130/69
f 76/131/70 77/132/70 44/133/70 45/127/70
f 77/132/71 78/134/71 43/135/71 44/133/71
f 78/134/72 79/136/72 42/137/72 43/135/72
f 79/136/73 80/138/73 41/139/73 42/137/73
f 80/138/74 81/79/74 40/75/74 41/139/74
f 25/87/42 53/114/42 54/84/42 21/83/42
f 53/114/42 52/116/42 55/112/42 54/84/42
f 52/116/75 51/118/75 56/110/75 55/112/75
f 51/118/76 50/120/76 57/108/76 56/110/76
f 50/120/77 49/122/77 58/106/77 57/108/77
f 49/122/78 48/124/78 59/104/78 58/106/78
f 48/124/79 47/126/79 60/102/79 59/104/79
f 47/126/80 46/128/80 61/100/80 60/102/80
f 46/128/81 45/127/81 62/98/81 61/100/81
f 45/127/82 44/133/82 63/96/82 62/98/82
f 44/133/83 43/135/83 64/94/83 63/96/83
f 43/135/84 42/137/84 65/92/84 64/94/84
f 42/137/85 41/139/85 66/90/85 65/92/85
f 41/139/86 40/75/86 67/78/86 66/90/86
f 110/140/87 103/141/87 90/142/87 89/143/87
f 46/128/88 47/126/88 84/144/88 83/129/88
f 76/131/89 45/127/89 82/130/89 87/145/89
f 47/126/90 74/125/90 85/146/90 84/144/90
f 91/147/91 92/148/91 89/143/91 90/142/91
f 92/148/92 93/149/92 88/150/92 89/143/92
f 101/151/93 105/152/93 88/150/93 93/149/93
f 103/141/94 107/153/94 91/147/94 90/142/94
f 105/152/95 110/140/95 89/143/95 88/150/95
f 121/154/96 114/155/96 97/156/96 98/157/96
f 119/158/97 123/159/97 99/160/97 96/161/97
f 117/162/98 121/154/98 98/157/98 94/163/98
f 114/155/99 119/158/99 96/161/99 97/156/99
f 98/157/100 97/156/100 111/164/100 104/165/100
f 104/165/101 111/164/101 110/140/101 105/152/101
f 96/161/102 99/160/102 106/166/102 102/167/102
f 102/167/103 106/166/103 107/153/103 103/141/103
f 94/163/104 98/157/104 104/165/104 100/168/104
f 100/168/105 104/165/105 105/152/105 101/151/105
f 97/156/106 96/161/106 102/167/106 111/164/106
f 111/164/107 102/167/107 103/141/107 110/140/107
f 83/129/108 84/144/108 118/169/108 115/170/108
f 115/170/109 118/169/109 119/158/109 114/155/109
f 87/145/110 82/130/110 120/171/110 116/172/110
f 116/172/111 120/171/111 121/154/111 117/162/111
f 84/144/112 85/146/112 122/173/112 118/169/112
f 118/169/113 122/173/113 123/159/113 119/158/113
f 82/130/114 83/129/114 115/170/114 120/171/114
f 120/171/115 115/170/115 114/155/115 121/154/115
